# xmcd
#
# Track frame offsets: 
#        150
#        30256
#        47352
#        66198
#        90682
#        110118
#        125967
#        158953
#        180317
#        195146
#        210817
#        239564
#        256407
#        275653
#        294728
#        312965
#        331097
#
# Disc length: 4690 seconds
#
# Revision: 2
# Processed by: cddbd v1.5.2PL0 Copyright (c) Steve Scherf et al.
# Submitted via: ExactAudioCopy v0.95b4
#
DISCID=ee125011
DTITLE=Various Artist - Blues Notes (AUDIO's Audiophile)
DYEAR=2000
DGENRE=Blues
TTITLE0=Gary More - Story Of The Blues
TTITLE1=Joanna Connor - Big Girl Blues
TTITLE2=Stevie Ray Vaughan - Crossfire
TTITLE3=B.B. King - The Thrill Has Gone
TTITLE4=Cadillac Blues Band - Funky Cool
TTITLE5=Electric Blues Duo - Texas
TTITLE6=Guitar Crusher - Message To Man
TTITLE7=John Hiatt - Alone In The Dark
TTITLE8=Charlie Musselwhite - Leaving Your Town
TTITLE9=Tinsley Ellis - Double Eyed Whammy
TTITLE10=Roy Buchanan - Drowning On Dry Land
TTITLE11=Joan Armatrading - Lost In Love
TTITLE12=Rory Block - You Didn't Mind
TTITLE13=James Taylor - Bartender's Blues
TTITLE14=Carey Bell and Junior Wells - Second Hand Man
TTITLE15=Chet Atkins And Mark Knopfler - Poor Boy Blues
TTITLE16=George Benson - Myna Bird Blues
EXTD=Sony - 986 430-2\nVereinigte Motor-Verlage, Stuttgart - Zounds - A
EXTD=UDIO - CD 2700000074 D\nRemastered -> CEDAR - 24 Karat Gold-CD\nZus
EXTD=ammenstellung: Lothar Brandt\nBooklet-Text: Bernd Matheja\nRedakt
EXTD=ion: Dr. Franz-Peter Hudek\nProduktionsleitung, CD-Mastering und 
EXTD=Technik-Text: Wolfgang Feld\nGestaltung: ARTWARE, W. Fichtner, St
EXTD=uttgart\ndtp-Satz, Produktion: Ulrike Speidel.
EXTT0=
EXTT1=
EXTT2=
EXTT3=
EXTT4=
EXTT5=
EXTT6=
EXTT7=
EXTT8=
EXTT9=
EXTT10=
EXTT11=
EXTT12=
EXTT13=
EXTT14=
EXTT15=
EXTT16=
PLAYORDER=
